<svg width="951" height="281" viewBox="0 0 951 281" fill="none" xmlns="http://www.w3.org/2000/svg">
<path d="M388.652 183.75L383.238 167.508H347.273L341.859 183.75H322.652L354.234 93.5156H376.277L407.988 183.75H388.652ZM352.945 150.879H377.695L365.32 114.012L352.945 150.879ZM453.488 117.492C462.168 117.492 469.559 120.801 475.66 127.418C481.848 133.949 484.941 141.984 484.941 151.523C484.941 161.062 481.848 169.141 475.66 175.758C469.559 182.289 462.168 185.555 453.488 185.555C444.465 185.555 437.504 182.418 432.605 176.145V209.531H415.976V119.297H432.605V126.902C437.504 120.629 444.465 117.492 453.488 117.492ZM437.633 164.672C440.984 168.023 445.238 169.699 450.394 169.699C455.551 169.699 459.805 168.023 463.156 164.672C466.594 161.234 468.312 156.852 468.312 151.523C468.312 146.195 466.594 141.855 463.156 138.504C459.805 135.066 455.551 133.348 450.394 133.348C445.238 133.348 440.984 135.066 437.633 138.504C434.281 141.855 432.605 146.195 432.605 151.523C432.605 156.852 434.281 161.234 437.633 164.672ZM534.18 117.492C542.86 117.492 550.251 120.801 556.352 127.418C562.54 133.949 565.634 141.984 565.634 151.523C565.634 161.062 562.54 169.141 556.352 175.758C550.251 182.289 542.86 185.555 534.18 185.555C525.157 185.555 518.196 182.418 513.298 176.145V209.531H496.669V119.297H513.298V126.902C518.196 120.629 525.157 117.492 534.18 117.492ZM518.325 164.672C521.677 168.023 525.93 169.699 531.087 169.699C536.243 169.699 540.497 168.023 543.848 164.672C547.286 161.234 549.005 156.852 549.005 151.523C549.005 146.195 547.286 141.855 543.848 138.504C540.497 135.066 536.243 133.348 531.087 133.348C525.93 133.348 521.677 135.066 518.325 138.504C514.973 141.855 513.298 146.195 513.298 151.523C513.298 156.852 514.973 161.234 518.325 164.672ZM608.943 185.555C600.006 185.555 592.486 183.578 586.384 179.625C580.283 175.586 575.986 170.129 573.494 163.254L588.705 154.359C592.228 163.555 599.146 168.152 609.459 168.152C614.443 168.152 618.095 167.25 620.416 165.445C622.736 163.641 623.896 161.363 623.896 158.613C623.896 155.434 622.478 152.984 619.642 151.266C616.806 149.461 611.736 147.527 604.431 145.465C600.392 144.262 596.955 143.059 594.119 141.855C591.369 140.652 588.576 139.062 585.74 137.086C582.99 135.023 580.884 132.445 579.424 129.352C577.963 126.258 577.232 122.648 577.232 118.523C577.232 110.359 580.111 103.871 585.869 99.0586C591.713 94.1602 598.717 91.7109 606.881 91.7109C614.185 91.7109 620.588 93.5156 626.088 97.125C631.674 100.648 636.013 105.59 639.107 111.949L624.154 120.586C620.545 112.852 614.787 108.984 606.881 108.984C603.185 108.984 600.263 109.844 598.115 111.562C596.052 113.195 595.021 115.344 595.021 118.008C595.021 120.844 596.181 123.164 598.502 124.969C600.908 126.687 605.463 128.578 612.166 130.641C614.916 131.5 616.978 132.187 618.353 132.703C619.814 133.133 621.748 133.863 624.154 134.895C626.646 135.84 628.537 136.742 629.826 137.602C631.201 138.461 632.748 139.621 634.467 141.082C636.185 142.543 637.474 144.047 638.334 145.594C639.279 147.141 640.052 149.031 640.654 151.266C641.342 153.414 641.685 155.777 641.685 158.355C641.685 166.691 638.634 173.309 632.533 178.207C626.517 183.105 618.654 185.555 608.943 185.555ZM687.493 135.281H672.927V162.094C672.927 164.328 673.486 165.961 674.603 166.992C675.72 168.023 677.353 168.625 679.501 168.797C681.65 168.883 684.314 168.84 687.493 168.668V183.75C676.064 185.039 667.986 183.965 663.259 180.527C658.618 177.09 656.298 170.945 656.298 162.094V135.281H645.083V119.297H656.298V106.277L672.927 101.25V119.297H687.493V135.281ZM716.854 130.383C718.401 126.258 720.936 123.164 724.459 121.102C728.069 119.039 732.065 118.008 736.447 118.008V136.57C731.377 135.969 726.822 137 722.783 139.664C718.83 142.328 716.854 146.754 716.854 152.941V183.75H700.225V119.297H716.854V130.383ZM788.712 119.297H805.341V183.75H788.712V176.531C784.673 182.547 778.271 185.555 769.505 185.555C762.458 185.555 756.614 183.191 751.974 178.465C747.419 173.738 745.142 167.207 745.142 158.871V119.297H761.771V156.809C761.771 161.105 762.931 164.414 765.251 166.734C767.571 168.969 770.665 170.086 774.532 170.086C778.829 170.086 782.267 168.754 784.845 166.09C787.423 163.426 788.712 159.43 788.712 154.102V119.297ZM851.251 185.555C841.54 185.555 833.419 182.289 826.887 175.758C820.442 169.227 817.219 161.148 817.219 151.523C817.219 141.898 820.442 133.82 826.887 127.289C833.419 120.758 841.54 117.492 851.251 117.492C857.524 117.492 863.239 118.996 868.395 122.004C873.551 125.012 877.462 129.051 880.126 134.121L865.817 142.5C864.528 139.836 862.551 137.73 859.887 136.184C857.309 134.637 854.387 133.863 851.122 133.863C846.137 133.863 842.012 135.539 838.747 138.891C835.481 142.156 833.848 146.367 833.848 151.523C833.848 156.594 835.481 160.805 838.747 164.156C842.012 167.422 846.137 169.055 851.122 169.055C854.473 169.055 857.438 168.324 860.016 166.863C862.68 165.316 864.657 163.211 865.946 160.547L880.383 168.797C877.547 173.867 873.551 177.949 868.395 181.043C863.239 184.051 857.524 185.555 851.251 185.555ZM926.045 135.281H911.479V162.094C911.479 164.328 912.038 165.961 913.155 166.992C914.272 168.023 915.905 168.625 918.053 168.797C920.202 168.883 922.866 168.84 926.045 168.668V183.75C914.616 185.039 906.538 183.965 901.811 180.527C897.17 177.09 894.85 170.945 894.85 162.094V135.281H883.635V119.297H894.85V106.277L911.479 101.25V119.297H926.045V135.281Z" fill="#1E1E2F"/>
<path fill-rule="evenodd" clip-rule="evenodd" d="M194.965 148.12L214.204 184.23L234.463 219.456C244.307 205.528 245.991 185.714 238.53 170.062L216.164 130.205C196.459 104.428 154.984 105.235 137.104 131.749L97.5681 199.151C80.3388 223.537 47.6939 205.103 62.2733 178.966L119.087 79.3872C131.277 60.4568 147.904 65.203 154.132 75.9775L162.337 90.5491C169.358 102.453 193.532 96.1791 185.865 75.8194L172.751 54.8159C159.719 33.9106 117.208 29.8354 101.619 58.6347L37.8874 169.626C23.5197 205.13 39.6304 220.509 51.5926 229.178C74.002 245.413 105.594 235.948 120.477 212.969L158.487 149.086C166.632 134.902 187.135 133.456 194.949 148.12" fill="#3378FF"/>
<path fill-rule="evenodd" clip-rule="evenodd" d="M211.64 185.649L192.38 149.498L194.965 148.12L214.204 184.23L234.463 219.456C235.095 218.561 235.694 217.642 236.259 216.702C244.486 203 245.511 184.709 238.53 170.062L216.164 130.205C196.459 104.428 154.984 105.235 137.104 131.749L97.5681 199.151C80.3388 223.537 47.6939 205.103 62.2733 178.966L119.087 79.3872C131.277 60.4568 147.904 65.203 154.132 75.9775L162.337 90.5491C169.358 102.453 193.532 96.1791 185.865 75.8194L172.751 54.8159C159.719 33.9106 117.208 29.8354 101.619 58.6347L37.8874 169.626C23.5197 205.13 39.6304 220.509 51.5926 229.178C74.002 245.413 105.594 235.948 120.477 212.969L158.487 149.086C166.632 134.902 187.135 133.456 194.949 148.12L192.363 149.498C189.036 143.253 183.069 140.454 176.966 140.712C170.811 140.973 164.581 144.357 161.027 150.545L161.005 150.584L122.966 214.515L122.936 214.562C107.349 238.627 73.9341 248.982 49.8738 231.55C43.76 227.12 36.1846 220.702 32.1442 210.548C28.0704 200.31 27.7819 186.788 35.1716 168.527L35.2469 168.341L99.0602 57.2072C107.484 41.6776 123.134 35.1225 138.151 35.1564C153.056 35.19 168.041 41.7237 175.236 53.2643M175.236 53.2643L188.504 74.5146L188.606 74.7869C190.723 80.4066 190.755 85.3852 189.133 89.4662C187.515 93.5371 184.38 96.3834 180.789 97.9643C173.822 101.032 164.259 99.5759 159.813 92.0374L159.783 91.9868L151.588 77.4304C148.916 72.8181 144.079 69.6091 138.77 69.4717C133.599 69.338 127.275 72.1174 121.592 80.9084L64.8319 180.393L64.8251 180.405C61.493 186.384 60.9875 191.667 62.0536 195.852C63.1252 200.059 65.8459 203.414 69.4402 205.457C76.503 209.472 87.2983 208.523 95.1051 197.559L134.623 130.187L134.675 130.11C153.714 101.88 197.611 101.111 218.491 128.425L218.617 128.59L241.132 168.714L241.174 168.802C249.087 185.401 247.318 206.345 236.855 221.147L234.209 224.891L211.64 185.649" fill="#3378FF"/>
<rect x="152.344" y="193.359" width="46.875" height="46.875" rx="23.4375" fill="#A6C4FF"/>
</svg>
